<svg xmlns="http://www.w3.org/2000/svg" width="206" height="46" viewBox="0 0 206 46" fill="none"><path d="M57.168 38V7.068H63.152V38H57.168ZM61.568 25.328V20.004H77.144V25.328H61.568ZM61.568 12.348V7.068H77.892V12.348H61.568ZM91.247 38.44C89.1057 38.44 87.1697 37.956 85.439 36.988C83.7377 35.9907 82.3737 34.656 81.347 32.984C80.3497 31.2827 79.851 29.3907 79.851 27.308C79.851 25.2253 80.3497 23.3627 81.347 21.72C82.3444 20.048 83.7084 18.728 85.439 17.76C87.1697 16.7627 89.091 16.264 91.203 16.264C93.3737 16.264 95.3097 16.7627 97.011 17.76C98.7417 18.728 100.106 20.048 101.103 21.72C102.1 23.3627 102.599 25.2253 102.599 27.308C102.599 29.3907 102.1 31.2827 101.103 32.984C100.106 34.656 98.7417 35.9907 97.011 36.988C95.3097 37.956 93.3884 38.44 91.247 38.44ZM91.203 33.072C92.2884 33.072 93.2417 32.8373 94.063 32.368C94.9137 31.8693 95.559 31.1947 95.999 30.344C96.4684 29.464 96.703 28.4667 96.703 27.352C96.703 26.2373 96.4684 25.2547 95.999 24.404C95.5297 23.5533 94.8844 22.8933 94.063 22.424C93.2417 21.9253 92.2884 21.676 91.203 21.676C90.147 21.676 89.2084 21.9253 88.387 22.424C87.5657 22.8933 86.9204 23.5533 86.451 24.404C85.9817 25.2547 85.747 26.2373 85.747 27.352C85.747 28.4667 85.9817 29.464 86.451 30.344C86.9204 31.1947 87.5657 31.8693 88.387 32.368C89.2084 32.8373 90.147 33.072 91.203 33.072ZM106.31 38V16.748H112.074V38H106.31ZM112.074 26.252L109.83 24.756C110.094 22.1453 110.856 20.092 112.118 18.596C113.379 17.0707 115.198 16.308 117.574 16.308C118.6 16.308 119.524 16.484 120.346 16.836C121.167 17.1587 121.915 17.7013 122.59 18.464L118.982 22.6C118.659 22.248 118.263 21.984 117.794 21.808C117.354 21.632 116.84 21.544 116.254 21.544C115.022 21.544 114.01 21.94 113.218 22.732C112.455 23.4947 112.074 24.668 112.074 26.252ZM134.045 38.44C131.874 38.44 129.924 37.956 128.193 36.988C126.462 36.02 125.098 34.7 124.101 33.028C123.104 31.356 122.605 29.4787 122.605 27.396C122.605 25.284 123.104 23.392 124.101 21.72C125.098 20.048 126.462 18.728 128.193 17.76C129.953 16.7627 131.904 16.264 134.045 16.264C135.717 16.264 137.257 16.572 138.665 17.188C140.073 17.804 141.29 18.684 142.317 19.828L138.621 23.568C138.064 22.952 137.389 22.4827 136.597 22.16C135.834 21.8373 134.984 21.676 134.045 21.676C132.989 21.676 132.036 21.9253 131.185 22.424C130.364 22.8933 129.704 23.5533 129.205 24.404C128.736 25.2253 128.501 26.208 128.501 27.352C128.501 28.4667 128.736 29.464 129.205 30.344C129.704 31.1947 130.364 31.8693 131.185 32.368C132.036 32.8373 132.989 33.072 134.045 33.072C135.013 33.072 135.878 32.9107 136.641 32.588C137.433 32.236 138.108 31.7373 138.665 31.092L142.405 34.832C141.32 36.0053 140.073 36.9 138.665 37.516C137.257 38.132 135.717 38.44 134.045 38.44ZM154.085 38.44C152.149 38.44 150.403 37.956 148.849 36.988C147.294 36.02 146.077 34.7 145.197 33.028C144.317 31.356 143.877 29.4787 143.877 27.396C143.877 25.284 144.317 23.392 145.197 21.72C146.077 20.048 147.294 18.728 148.849 17.76C150.403 16.792 152.149 16.308 154.085 16.308C155.61 16.308 156.974 16.616 158.177 17.232C159.379 17.848 160.333 18.7133 161.037 19.828C161.77 20.9133 162.166 22.1453 162.225 23.524V31.18C162.166 32.588 161.77 33.8347 161.037 34.92C160.333 36.0053 159.379 36.8707 158.177 37.516C156.974 38.132 155.61 38.44 154.085 38.44ZM155.141 33.116C156.754 33.116 158.059 32.588 159.057 31.532C160.054 30.4467 160.553 29.0533 160.553 27.352C160.553 26.2373 160.318 25.2547 159.849 24.404C159.409 23.524 158.778 22.8493 157.957 22.38C157.165 21.8813 156.226 21.632 155.141 21.632C154.085 21.632 153.146 21.8813 152.325 22.38C151.533 22.8493 150.902 23.524 150.433 24.404C149.993 25.2547 149.773 26.2373 149.773 27.352C149.773 28.496 149.993 29.508 150.433 30.388C150.902 31.2387 151.533 31.9133 152.325 32.412C153.146 32.8813 154.085 33.116 155.141 33.116ZM160.245 38V32.28L161.169 27.088L160.245 21.984V16.748H165.965V38H160.245ZM178.368 38.484C177.165 38.484 175.977 38.3227 174.804 38C173.66 37.6773 172.604 37.2373 171.636 36.68C170.668 36.0933 169.832 35.3893 169.128 34.568L172.56 31.092C173.293 31.9133 174.144 32.5293 175.112 32.94C176.08 33.3507 177.15 33.556 178.324 33.556C179.262 33.556 179.966 33.424 180.436 33.16C180.934 32.896 181.184 32.5 181.184 31.972C181.184 31.3853 180.92 30.9307 180.392 30.608C179.893 30.2853 179.233 30.0213 178.412 29.816C177.59 29.5813 176.725 29.332 175.816 29.068C174.936 28.7747 174.085 28.408 173.264 27.968C172.442 27.4987 171.768 26.868 171.24 26.076C170.741 25.2547 170.492 24.1987 170.492 22.908C170.492 21.5587 170.814 20.3853 171.46 19.388C172.134 18.3907 173.088 17.6133 174.32 17.056C175.552 16.4987 177.004 16.22 178.676 16.22C180.436 16.22 182.02 16.528 183.428 17.144C184.865 17.76 186.053 18.684 186.992 19.916L183.516 23.392C182.87 22.6 182.137 22.028 181.316 21.676C180.524 21.324 179.658 21.148 178.72 21.148C177.869 21.148 177.209 21.28 176.74 21.544C176.3 21.808 176.08 22.1747 176.08 22.644C176.08 23.172 176.329 23.5827 176.828 23.876C177.356 24.1693 178.03 24.4333 178.852 24.668C179.673 24.8733 180.524 25.1227 181.404 25.416C182.313 25.68 183.164 26.0613 183.956 26.56C184.777 27.0587 185.437 27.7187 185.936 28.54C186.464 29.3613 186.728 30.4173 186.728 31.708C186.728 33.7907 185.98 35.448 184.484 36.68C182.988 37.8827 180.949 38.484 178.368 38.484ZM193.739 38V7.904H199.503V38H193.739ZM188.767 21.808V16.748H204.475V21.808H188.767Z" fill="black"></path><circle cx="23" cy="23" r="23" fill="#FF184E"></circle><mask id="mask0_10273_125" style="mask-type:luminance" maskUnits="userSpaceOnUse" x="11" y="12" width="23" height="22"><path d="M25.3889 13.3651C28.1328 15.0275 29.967 18.0414 29.967 21.4835C29.967 22.1749 29.8929 22.8488 29.7524 23.498C29.5216 24.5637 28.3379 24.9979 27.2747 24.7559C26.4727 24.5734 25.6506 24.481 24.823 24.481C24.7784 24.481 24.7511 24.4296 24.7761 24.3928C25.3396 23.563 25.6685 22.5626 25.6685 21.4835C25.6685 19.6315 24.6975 18.0073 23.2383 17.0909C22.8087 16.8209 22.3368 16.6122 21.8336 16.4772C21.4027 16.3613 20.9513 16.2999 20.4835 16.2999C17.6196 16.2999 15.2985 18.621 15.2985 21.4849C15.2985 23.4228 16.3623 25.1138 17.9374 26.003C20.5422 27.4731 22.2346 26.0057 24.8216 26.0057C26.1922 26.0057 27.5436 26.2989 28.7901 26.873C30.0905 27.473 30.9816 28.3949 31.9299 29.173C33.0248 30.0715 33.6774 31.817 32.7126 32.8539C32.6503 32.9209 32.5874 32.9874 32.524 33.0533C31.9524 33.648 31.0454 33.7603 30.3704 33.2861C28.4926 31.9671 27.1692 30.3042 24.823 30.3042C21.0413 30.3042 20.1235 32.2012 15.7881 29.726C12.9283 28.0922 11 25.0129 11 21.4835C11 16.3381 15.0967 12.15 20.2067 12.0041C20.2994 12.0014 20.3908 12 20.4835 12C21.7354 12 22.9301 12.2427 24.0238 12.6832C24.4998 12.8742 24.9552 13.1033 25.3889 13.3651Z" fill="white"></path></mask><g mask="url(#mask0_10273_125)"><path d="M32.5288 12H13C11.8954 12 11 12.8954 11 14V32C11 33.1046 11.8954 34 13 34H32.5288C33.6333 34 34.5288 33.1046 34.5288 32V14C34.5288 12.8954 33.6333 12 32.5288 12Z" fill="white"></path></g></svg>